<svg width="2400" height="500" viewBox="0 0 2400 500" fill="none" xmlns="http://www.w3.org/2000/svg">
<rect width="2400" height="500" fill="white"/>
<path d="M291.791 84C223.014 84 167.07 139.944 167.07 208.722V416H374.348C443.125 416 499.07 360.056 499.07 291.278V84H291.791ZM455.332 291.263C455.332 335.933 419.003 372.262 374.333 372.262H249.245L364.067 218.759L210.792 333.672V208.722C210.792 164.067 247.121 127.723 291.791 127.723H455.332V291.263Z" fill="#90F5C5"/>
<path d="M830.346 315.775V352H729.419C719.453 352 710.117 349.684 701.538 345.308C689.049 338.938 678.83 328.515 672.838 315.711C668.548 307.025 666.277 297.438 666.277 287.272V149H701.854V290.746C703.557 303.486 713.523 313.652 726.013 315.389L830.346 315.711V315.775Z" fill="#0A3029"/>
<path d="M1146.32 149.322C1202.15 149.322 1247.52 194.569 1247.52 250.5C1247.52 275.473 1238.54 298.322 1223.52 316.021C1221.79 318.081 1219.73 320.076 1217.74 322.136C1199.52 340.672 1174.36 352 1146.64 352H1045.44V149H1146.64L1146.32 149.258V149.322ZM1211.39 250.822C1211.39 214.843 1182.19 185.558 1146.32 185.558H1081.24V316.086H1146.32C1182.19 316.086 1211.39 286.801 1211.39 250.822Z" fill="#0A3029"/>
<path d="M1704.71 149V352H1668.46V222.631L1632.79 249.921L1603.17 272.834L1573.55 249.921L1537.88 222.631V352H1501.63V149L1537.88 176.869L1603.17 227.008L1668.46 176.869L1704.71 149Z" fill="#90F5C5"/>
<path d="M1732.72 352V149H1768.74V352H1732.72Z" fill="#90F5C5"/>
<path d="M1999.83 149.257V352L1963.58 324.166L1833 223.695V352H1796.75V149.836L1833 177.669L1963.58 278.141V149L1999.83 149.257Z" fill="#90F5C5"/>
<path d="M2230.93 149V185.236H2147.54V352H2111.23V185.236H2027.84V149H2230.93Z" fill="#90F5C5"/>
<path d="M891.164 274.042C918.754 273.913 964.52 273.72 972.57 273.72L972.375 237.186L891.164 237.571V185.471H1022.36V149H854.356V352C854.356 352 1010.74 352 1022.43 352V315.465H891.229V274.042H891.164Z" fill="#0A3029"/>
<path d="M1437.13 320.546C1431.98 335.212 1402.57 337.913 1393.18 339.2C1378.89 341.194 1270.53 352 1270.53 352V225.286C1270.53 183.155 1304.7 149 1346.85 149H1473.61V351.871C1473.61 351.871 1459.01 351.936 1437.13 352V320.611V320.546ZM1437.13 185.47H1349.16C1325.93 185.47 1307.08 204.317 1307.08 227.537V312.506L1406.24 299.899C1423.94 297.648 1437.19 282.597 1437.19 264.779V185.406L1437.13 185.47Z" fill="#0A3029"/>
</svg>
