<svg width="2400" height="500" viewBox="0 0 2400 500" fill="none" xmlns="http://www.w3.org/2000/svg">
<rect width="2400" height="500" fill="white"/>
<path d="M281.32 98C218.317 98 167.07 149.226 167.07 212.203V402H356.946C419.949 402 471.197 350.774 471.197 287.797V98H281.32ZM431.131 287.783C431.131 328.686 397.852 361.951 356.932 361.951H242.346L347.528 221.393L207.122 326.615V212.203C207.122 171.314 240.401 138.035 281.32 138.035H431.131V287.783Z" fill="#0A3029"/>
<path d="M779.192 304.511V334.813H692.502C683.941 334.813 675.922 332.876 668.553 329.216C657.825 323.887 649.048 315.168 643.901 304.457C640.216 297.191 638.266 289.171 638.266 280.667V165H668.824V283.573C670.287 294.23 678.848 302.734 689.576 304.188L779.192 304.457V304.511Z" fill="#0A3029"/>
<path d="M1043.54 165.269C1090.47 165.269 1128.61 203.119 1128.61 249.907C1128.61 270.797 1121.06 289.91 1108.44 304.716C1106.98 306.439 1105.25 308.108 1103.58 309.831C1088.26 325.337 1067.11 334.813 1043.81 334.813H958.729V165H1043.81L1043.54 165.215V165.269ZM1098.24 250.176C1098.24 220.079 1073.69 195.581 1043.54 195.581H988.832V304.77H1043.54C1073.69 304.77 1098.24 280.273 1098.24 250.176Z" fill="#0A3029"/>
<path d="M1514.71 165V334.813H1484.39V226.594L1454.55 249.422L1429.77 268.589L1404.99 249.422L1375.15 226.594V334.813H1344.83V165L1375.15 188.313L1429.77 230.255L1484.39 188.313L1514.71 165Z" fill="#0A3029"/>
<path d="M1539.81 334.813V165H1568.77V334.813H1539.81Z" fill="#0A3029"/>
<path d="M1763.75 165.215V334.813L1733.42 311.53L1624.19 227.484V334.813H1593.86V165.699L1624.19 188.982L1733.42 273.029V165L1763.75 165.215Z" fill="#0A3029"/>
<path d="M1958.73 165V195.312H1888.97V334.813H1858.6V195.312H1788.84V165H1958.73Z" fill="#0A3029"/>
<path d="M827.853 269.6C851.303 269.492 890.204 269.331 897.046 269.331L896.881 238.769L827.853 239.092V195.508H939.368V165H796.566V334.813C796.566 334.813 929.491 334.813 939.424 334.813V304.251H827.908V269.6H827.853Z" fill="#0A3029"/>
<path d="M1288.87 308.502C1284.51 320.77 1259.63 323.03 1251.68 324.106C1239.6 325.774 1147.92 334.813 1147.92 334.813V228.814C1147.92 193.571 1176.83 165 1212.49 165H1319.73V334.706C1319.73 334.706 1307.38 334.76 1288.87 334.813V308.556V308.502ZM1288.87 195.508H1214.45C1194.79 195.508 1178.84 211.274 1178.84 230.698V301.776L1262.73 291.23C1277.71 289.347 1288.92 276.756 1288.92 261.852V195.455L1288.87 195.508Z" fill="#0A3029"/>
<path d="M1958.73 334.813V305.868H1989.62V334.813H1958.73Z" fill="#0A3029"/>
<path d="M2014.71 332.884V165H2043.67V332.884H2014.71Z" fill="#0A3029"/>
<path d="M2230.93 248.942C2230.93 295.251 2193.28 332.884 2146.95 332.884C2100.62 332.884 2062.98 295.251 2062.98 248.942C2062.98 202.633 2100.62 165 2146.95 165C2193.28 165 2230.93 202.633 2230.93 248.942ZM2200.95 248.942C2200.95 219.187 2176.72 194.968 2146.95 194.968C2117.19 194.968 2092.96 219.187 2092.96 248.942C2092.96 278.697 2117.19 302.916 2146.95 302.916C2176.72 302.916 2200.95 278.697 2200.95 248.942Z" fill="#0A3029"/>
<path d="M779.324 303.664V334H692.552C683.984 334 675.957 332.06 668.582 328.396C657.844 323.062 649.058 314.333 643.906 303.61C640.218 296.336 638.266 288.307 638.266 279.794V164H668.853V282.704C670.317 293.372 678.886 301.886 689.624 303.341L779.324 303.61V303.664Z" fill="#0A3029"/>
</svg>
