<svg width="2399" height="500" viewBox="0 0 2399 500" fill="none" xmlns="http://www.w3.org/2000/svg">
<rect width="2399" height="500" fill="white"/>
<path d="M291.721 84C222.944 84 167 139.944 167 208.722V416H374.278C443.056 416 499 360.056 499 291.278V84H291.721ZM455.262 291.263C455.262 335.933 418.933 372.262 374.263 372.262H249.175L363.997 218.759L210.723 333.672V208.722C210.723 164.067 247.052 127.723 291.721 127.723H455.262V291.263Z" fill="#0A3029"/>
<path d="M830 314.775V351H729.116C719.153 351 709.822 348.684 701.246 344.308C688.762 337.938 678.547 327.515 672.557 314.711C668.27 306.025 666 296.438 666 286.272V148H701.562V289.746C703.264 302.486 713.226 312.652 725.711 314.389L830 314.711V314.775Z" fill="#0A3029"/>
<path opacity="0.1" d="M666 200.24V237H563.27C553.126 237 543.623 234.649 534.891 230.209C522.178 223.745 511.777 213.168 505.677 200.175C501.311 191.36 499 181.631 499 171.315V31H535.212V174.841C536.946 187.769 547.09 198.085 559.803 199.848L666 200.175V200.24Z" fill="#0A3029"/>
<path opacity="0.1" d="M167 200.24V237H64.2703C54.1257 237 44.6232 234.649 35.8912 230.209C23.1784 223.745 12.777 213.168 6.67743 200.175C2.31142 191.36 0 181.631 0 171.315V31H36.2122V174.841C37.9458 187.769 48.0904 198.085 60.8032 199.848L167 200.175V200.24Z" fill="#0A3029"/>
<path opacity="0.1" d="M2399 200.24V237H2296.27C2286.13 237 2276.62 234.649 2267.89 230.209C2255.18 223.745 2244.78 213.168 2238.68 200.175C2234.31 191.36 2232 181.631 2232 171.315V31H2268.21V174.841C2269.95 187.769 2280.09 198.085 2292.8 199.848L2399 200.175V200.24Z" fill="#0A3029"/>
<path d="M1145.84 148.322C1201.65 148.322 1247 193.569 1247 249.5C1247 274.473 1238.02 297.322 1223.01 315.021C1221.28 317.081 1219.22 319.076 1217.24 321.136C1199.02 339.672 1173.87 351 1146.16 351H1045V148H1146.16L1145.84 148.258V148.322ZM1210.89 249.822C1210.89 213.843 1181.7 184.558 1145.84 184.558H1080.79V315.086H1145.84C1181.7 315.086 1210.89 285.801 1210.89 249.822Z" fill="#0A3029"/>
<path d="M1704 148V351H1667.76V221.631L1632.11 248.921L1602.5 271.834L1572.89 248.921L1537.24 221.631V351H1501V148L1537.24 175.869L1602.5 226.008L1667.76 175.869L1704 148Z" fill="#0A3029"/>
<path d="M1732 351V148H1768V351H1732Z" fill="#0A3029"/>
<path d="M1999 148.257V351L1962.76 323.166L1832.24 222.695V351H1796V148.836L1832.24 176.669L1962.76 277.141V148L1999 148.257Z" fill="#0A3029"/>
<path d="M2230 148V184.236H2146.65V351H2110.35V184.236H2027V148H2230Z" fill="#0A3029"/>
<path d="M890.793 273.042C918.371 272.913 964.118 272.72 972.165 272.72L971.97 236.186L890.793 236.571V184.471H1021.94V148H854V351C854 351 1010.32 351 1022 351V314.465H890.857V273.042H890.793Z" fill="#0A3029"/>
<path d="M1436.53 319.546C1431.38 334.212 1401.99 336.913 1392.6 338.2C1378.32 340.194 1270 351 1270 351V224.286C1270 182.155 1304.15 148 1346.29 148H1473V350.871C1473 350.871 1458.4 350.936 1436.53 351V319.611V319.546ZM1436.53 184.47H1348.6C1325.38 184.47 1306.53 203.317 1306.53 226.537V311.506L1405.65 298.899C1423.34 296.648 1436.59 281.597 1436.59 263.779V184.406L1436.53 184.47Z" fill="#0A3029"/>
</svg>
