<svg width="2399" height="500" viewBox="0 0 2399 500" fill="none" xmlns="http://www.w3.org/2000/svg">
<rect width="2399" height="500" fill="white"/>
<path d="M281.203 98C218.226 98 167 149.226 167 212.203V402H356.797C419.774 402 471 350.774 471 287.797V98H281.203ZM430.951 287.783C430.951 328.686 397.686 361.951 356.783 361.951H242.245L347.383 221.393L207.035 326.615V212.203C207.035 171.314 240.3 138.035 281.203 138.035H430.951V287.783Z" fill="#0A3029"/>
<path opacity="0.1" d="M638 200.24V237H535.27C525.126 237 515.623 234.649 506.891 230.209C494.178 223.745 483.777 213.168 477.677 200.175C473.311 191.36 471 181.631 471 171.315V31H507.212V174.841C508.946 187.769 519.09 198.085 531.803 199.848L638 200.175V200.24Z" fill="#0A3029"/>
<path opacity="0.1" d="M167 200.24V237H64.2703C54.1257 237 44.6232 234.649 35.8912 230.209C23.1784 223.745 12.777 213.168 6.67743 200.175C2.31142 191.36 0 181.631 0 171.315V31H36.2122V174.841C37.9458 187.769 48.0904 198.085 60.8032 199.848L167 200.175V200.24Z" fill="#0A3029"/>
<path opacity="0.1" d="M2399 200.24V237H2296.27C2286.13 237 2276.62 234.649 2267.89 230.209C2255.18 223.745 2244.78 213.168 2238.68 200.175C2234.31 191.36 2232 181.631 2232 171.315V31H2268.21V174.841C2269.95 187.769 2280.09 198.085 2292.8 199.848L2399 200.175V200.24Z" fill="#0A3029"/>
<path d="M778.868 304.511V334.813H692.213C683.656 334.813 675.641 332.876 668.275 329.216C657.551 323.887 648.778 315.168 643.633 304.457C639.95 297.191 638 289.171 638 280.667V165H668.546V283.573C670.008 294.23 678.565 302.734 689.289 304.188L778.868 304.457V304.511Z" fill="#0A3029"/>
<path d="M1043.1 165.269C1090.02 165.269 1128.14 203.119 1128.14 249.907C1128.14 270.797 1120.59 289.91 1107.97 304.716C1106.52 306.439 1104.79 308.108 1103.12 309.831C1087.81 325.337 1066.67 334.813 1043.37 334.813H958.329V165H1043.37L1043.1 165.215V165.269ZM1097.78 250.176C1097.78 220.079 1073.25 195.581 1043.1 195.581H988.42V304.77H1043.1C1073.25 304.77 1097.78 280.273 1097.78 250.176Z" fill="#0A3029"/>
<path d="M1514.08 165V334.813H1483.77V226.594L1453.94 249.422L1429.18 268.589L1404.41 249.422L1374.58 226.594V334.813H1344.27V165L1374.58 188.313L1429.18 230.255L1483.77 188.313L1514.08 165Z" fill="#0A3029"/>
<path d="M1539.17 334.813V165H1568.11V334.813H1539.17Z" fill="#0A3029"/>
<path d="M1763.01 165.215V334.813L1732.7 311.53L1623.51 227.484V334.813H1593.2V165.699L1623.51 188.982L1732.7 273.029V165L1763.01 165.215Z" fill="#0A3029"/>
<path d="M1957.91 165V195.312H1888.19V334.813H1857.83V195.312H1788.1V165H1957.91Z" fill="#0A3029"/>
<path d="M827.508 269.6C850.949 269.492 889.834 269.331 896.673 269.331L896.508 238.769L827.508 239.092V195.508H938.978V165H796.235V334.813C796.235 334.813 929.105 334.813 939.033 334.813V304.251H827.564V269.6H827.508Z" fill="#0A3029"/>
<path d="M1288.33 308.502C1283.98 320.77 1259.11 323.03 1251.16 324.106C1239.08 325.774 1147.44 334.813 1147.44 334.813V228.814C1147.44 193.571 1176.34 165 1211.98 165H1319.18V334.706C1319.18 334.706 1306.83 334.76 1288.33 334.813V308.556V308.502ZM1288.33 195.508H1213.94C1194.29 195.508 1178.35 211.274 1178.35 230.698V301.776L1262.21 291.23C1277.17 289.347 1288.38 276.756 1288.38 261.852V195.455L1288.33 195.508Z" fill="#0A3029"/>
<path d="M1957.91 334.813V305.868H1988.79V334.813H1957.91Z" fill="#0A3029"/>
<path d="M2013.87 332.884V165H2042.82V332.884H2013.87Z" fill="#0A3029"/>
<path d="M2230 248.942C2230 295.251 2192.37 332.884 2146.06 332.884C2099.75 332.884 2062.12 295.251 2062.12 248.942C2062.12 202.633 2099.75 165 2146.06 165C2192.37 165 2230 202.633 2230 248.942ZM2200.03 248.942C2200.03 219.187 2175.81 194.968 2146.06 194.968C2116.3 194.968 2092.08 219.187 2092.08 248.942C2092.08 278.697 2116.3 302.916 2146.06 302.916C2175.81 302.916 2200.03 278.697 2200.03 248.942Z" fill="#0A3029"/>
<path d="M779 303.664V334H692.264C683.699 334 675.676 332.06 668.303 328.396C657.57 323.062 648.788 314.333 643.638 303.61C639.952 296.336 638 288.307 638 279.794V164H668.574V282.704C670.038 293.372 678.603 301.886 689.337 303.341L779 303.61V303.664Z" fill="#0A3029"/>
</svg>
