<svg width="1600" height="960" viewBox="0 0 1600 960" fill="none" xmlns="http://www.w3.org/2000/svg">
<rect width="1600" height="960" fill="white"/>
<path d="M320.117 392C283.657 392 254 421.657 254 458.117V568H363.883C400.343 568 430 538.343 430 501.883V392H320.117ZM406.814 501.874C406.814 525.555 387.555 544.814 363.874 544.814H297.563L358.432 463.438L277.178 524.356V458.117C277.178 434.445 296.437 415.178 320.117 415.178H406.814V501.874Z" fill="#90F5C5"/>
<path d="M606 514.827V534.154H551.867C546.521 534.154 541.514 532.918 536.913 530.584C530.214 527.185 524.733 521.624 521.519 514.792C519.218 510.158 518 505.043 518 499.619V425.846H537.082V501.473C537.995 508.27 543.341 513.694 550.04 514.621L606 514.792V514.827Z" fill="#0A3029"/>
<path d="M772.888 426.018C802.811 426.018 827.128 450.159 827.128 480C827.128 493.324 822.313 505.514 814.265 514.958C813.336 516.057 812.235 517.121 811.169 518.22C801.401 528.11 787.919 534.154 773.06 534.154H718.821V425.846H773.06L772.888 425.984V426.018ZM807.764 480.172C807.764 460.976 792.115 445.351 772.888 445.351H738.013V514.992H772.888C792.115 514.992 807.764 499.368 807.764 480.172Z" fill="#0A3029"/>
<path d="M1068.56 425.846V534.154H1049.23V465.131L1030.21 479.691L1014.41 491.916L998.614 479.691L979.59 465.131V534.154H960.256V425.846L979.59 440.715L1014.41 467.466L1049.23 440.715L1068.56 425.846Z" fill="#90F5C5"/>
<path d="M1082.1 534.154V425.846H1102.41V534.154H1082.1Z" fill="#90F5C5"/>
<path d="M1224.26 425.983V534.154L1204.92 519.304L1135.28 465.698V534.154H1115.95V426.292L1135.28 441.142L1204.92 494.747V425.846L1224.26 425.983Z" fill="#90F5C5"/>
<path d="M1346.1 425.846V445.179H1302.56V534.154H1283.6V445.179H1240.05V425.846H1346.1Z" fill="#90F5C5"/>
<path d="M637.049 492.56C651.865 492.492 676.442 492.389 680.765 492.389L680.66 472.896L637.049 473.102V445.304H707.504V425.846H617.282V534.154C617.282 534.154 701.263 534.154 707.538 534.154V514.661H637.083V492.56H637.049Z" fill="#0A3029"/>
<path d="M927.26 517.372C924.514 525.197 908.831 526.638 903.82 527.324C896.202 528.388 838.41 534.154 838.41 534.154V466.547C838.41 444.069 856.633 425.846 879.111 425.846H946.718V534.085C946.718 534.085 938.928 534.12 927.26 534.154V517.407V517.372ZM927.26 445.304H880.347C867.958 445.304 857.903 455.36 857.903 467.748V513.083L910.787 506.356C920.224 505.155 927.294 497.125 927.294 487.619V445.27L927.26 445.304Z" fill="#0A3029"/>
<path d="M1570 894.227C1570 913.956 1553.96 930 1534.23 930H1478.98L1529.69 862.206L1462 912.957V857.773C1462 838.051 1478.04 822 1497.77 822H1570V894.227Z" fill="#0A3029"/>
</svg>
