<svg width="1000" height="1000" viewBox="0 0 1000 1000" fill="none" xmlns="http://www.w3.org/2000/svg">
<rect width="1000" height="1000" fill="white"/>
<path d="M1000 0H3V1000H1000V0Z" fill="#0A3029"/>
<path d="M459.721 237C390.944 237 335 292.944 335 361.722V569H542.278C611.056 569 667 513.056 667 444.278V237H459.721ZM623.262 444.263C623.262 488.933 586.933 525.262 542.263 525.262H417.175L531.997 371.758L378.723 486.672V361.722C378.723 317.067 415.052 280.723 459.721 280.723H623.262V444.263Z" fill="white"/>
<path d="M162 748.297V764H117.094C112.66 764 108.506 762.996 104.689 761.099C99.1319 758.338 94.5852 753.819 91.9189 748.269C90.0104 744.503 89 740.347 89 735.94V676H104.829V737.447C105.587 742.969 110.022 747.376 115.579 748.129L162 748.269V748.297Z" fill="white"/>
<path d="M298.93 676.139C323.243 676.139 343 695.754 343 720C343 730.826 339.088 740.731 332.548 748.403C331.794 749.296 330.9 750.161 330.033 751.054C322.097 759.089 311.142 764 299.07 764H255V676H299.07L298.93 676.112V676.139ZM327.267 720.14C327.267 704.543 314.552 691.848 298.93 691.848H270.594V748.431H298.93C314.552 748.431 327.267 735.736 327.267 720.14Z" fill="white"/>
<path d="M543 676V764H527.292V707.919L511.834 719.749L499 729.682L486.166 719.749L470.708 707.919V764H455V676L470.708 688.081L499 709.816L527.292 688.081L543 676Z" fill="white"/>
<path d="M556 764V676H571V764H556Z" fill="white"/>
<path d="M672 676.111V764L656.292 751.934L599.708 708.38V764H584V676.362L599.708 688.428L656.292 731.982V676L672 676.111Z" fill="white"/>
<path d="M773 676V691.708H736.867V764H721.133V691.708H685V676H773Z" fill="white"/>
<path d="M187.206 730.205C199.354 730.15 219.504 730.066 223.049 730.066L222.963 714.228L187.206 714.395V691.81H244.971V676H171V764C171 764 239.855 764 245 764V748.162H187.235V730.205H187.206Z" fill="white"/>
<path d="M426.01 750.365C423.754 756.722 410.867 757.893 406.75 758.451C400.489 759.316 353 764 353 764V709.07C353 690.806 367.974 676 386.446 676H442V763.944C442 763.944 435.599 763.972 426.01 764V750.393V750.365ZM426.01 691.81H387.461C377.28 691.81 369.018 699.98 369.018 710.046V746.88L412.474 741.414C420.229 740.439 426.039 733.914 426.039 726.19V691.782L426.01 691.81Z" fill="white"/>
<path d="M773 764V749H789V764H773Z" fill="white"/>
<path d="M802 763V676H817V763H802Z" fill="white"/>
<path d="M914 719.5C914 743.498 894.498 763 870.5 763C846.502 763 827 743.498 827 719.5C827 695.502 846.502 676 870.5 676C894.498 676 914 695.502 914 719.5ZM898.47 719.5C898.47 704.081 885.919 691.53 870.5 691.53C855.08 691.53 842.53 704.081 842.53 719.5C842.53 734.919 855.08 747.47 870.5 747.47C885.919 747.47 898.47 734.919 898.47 719.5Z" fill="white"/>
</svg>
