<svg width="1000" height="1000" viewBox="0 0 1000 1000" fill="none" xmlns="http://www.w3.org/2000/svg">
<rect width="1000" height="1000" fill="white"/>
<path d="M174 740.906V760H120.482C115.197 760 110.247 758.779 105.698 756.473C99.075 753.115 93.6563 747.621 90.4787 740.872C88.2042 736.294 87 731.241 87 725.882V653H105.865V727.713C106.768 734.429 112.053 739.787 118.676 740.703L174 740.872V740.906Z" fill="white"/>
<path d="M345.415 659.17C374.977 659.17 399 683.019 399 712.5C399 725.663 394.243 737.706 386.292 747.036C385.374 748.121 384.287 749.173 383.234 750.259C373.584 760.029 360.264 766 345.585 766H292V659H345.585L345.415 659.136V659.17ZM379.87 712.67C379.87 693.705 364.409 678.269 345.415 678.269H310.96V747.07H345.415C364.409 747.07 379.87 731.634 379.87 712.67Z" fill="white"/>
<path d="M635 659V766H615.9V697.81L597.106 712.195L581.5 724.272L565.894 712.195L547.1 697.81V766H528V659L547.1 673.69L581.5 700.117L615.9 673.69L635 659Z" fill="white"/>
<path d="M650 766V659H669V766H650Z" fill="white"/>
<path d="M791 659.135V766L771.9 751.329L703.1 698.371V766H684V659.44L703.1 674.111L771.9 727.069V659L791 659.135Z" fill="white"/>
<path d="M913 659V678.1H869.065V766H849.935V678.1H806V659H913Z" fill="white"/>
<path d="M202.491 724.909C217.101 724.841 241.336 724.739 245.599 724.739L245.496 705.482L202.491 705.685V678.223H271.966V659H183V766C183 766 265.812 766 272 766V746.743H202.526V724.909H202.491Z" fill="white"/>
<path d="M496.777 749.421C494.064 757.151 478.57 758.575 473.62 759.253C466.094 760.304 409 766 409 766V699.21C409 677.003 427.003 659 449.21 659H516V765.932C516 765.932 508.304 765.966 496.777 766V749.455V749.421ZM496.777 678.223H450.43C438.191 678.223 428.257 688.157 428.257 700.396V745.183L480.503 738.538C489.826 737.351 496.811 729.418 496.811 720.027V678.189L496.777 678.223Z" fill="white"/>
<path d="M458.973 233C390.057 233 334 289.057 334 357.973V565.668H541.696C610.611 565.668 666.668 509.611 666.668 440.696V233H458.973ZM622.842 440.68C622.842 485.44 586.44 521.842 541.68 521.842H416.34L531.394 368.03L377.811 483.175V357.973C377.811 313.228 414.213 276.811 458.973 276.811H622.842V440.68Z" fill="white"/>
<rect width="1000" height="1000" fill="#0A3029"/>
<path d="M174 746.906V766H120.482C115.197 766 110.247 764.779 105.698 762.473C99.075 759.115 93.6563 753.621 90.4787 746.872C88.2042 742.294 87 737.241 87 731.882V659H105.865V733.713C106.768 740.429 112.053 745.787 118.676 746.703L174 746.872V746.906Z" fill="white"/>
<path d="M340.415 659.17C369.977 659.17 394 683.019 394 712.5C394 725.663 389.243 737.706 381.292 747.036C380.374 748.121 379.287 749.173 378.234 750.259C368.584 760.029 355.264 766 340.585 766H287V659H340.585L340.415 659.136V659.17ZM374.87 712.67C374.87 693.705 359.409 678.269 340.415 678.269H305.96V747.07H340.415C359.409 747.07 374.87 731.634 374.87 712.67Z" fill="white"/>
<path d="M635 659V766H615.9V697.81L597.106 712.195L581.5 724.272L565.894 712.195L547.1 697.81V766H528V659L547.1 673.69L581.5 700.117L615.9 673.69L635 659Z" fill="white"/>
<path d="M650 766V659H669V766H650Z" fill="white"/>
<path d="M791 659.135V766L771.9 751.329L703.1 698.371V766H684V659.44L703.1 674.111L771.9 727.069V659L791 659.135Z" fill="white"/>
<path d="M913 659V678.1H869.065V766H849.935V678.1H806V659H913Z" fill="white"/>
<path d="M205.491 724.909C220.101 724.841 244.336 724.739 248.599 724.739L248.496 705.482L205.491 705.685V678.223H274.966V659H186V766C186 766 268.812 766 275 766V746.743H205.526V724.909H205.491Z" fill="white"/>
<path d="M493.777 749.421C491.064 757.151 475.57 758.575 470.62 759.253C463.094 760.304 406 766 406 766V699.21C406 677.003 424.003 659 446.21 659H513V765.932C513 765.932 505.304 765.966 493.777 766V749.455V749.421ZM493.777 678.223H447.43C435.191 678.223 425.257 688.157 425.257 700.396V745.183L477.503 738.538C486.826 737.351 493.811 729.418 493.811 720.027V678.189L493.777 678.223Z" fill="white"/>
<path d="M457.721 233C388.944 233 333 288.944 333 357.722V565H540.278C609.056 565 665 509.056 665 440.278V233H457.721ZM621.262 440.263C621.262 484.933 584.933 521.262 540.263 521.262H415.175L529.997 367.758L376.723 482.672V357.722C376.723 313.067 413.052 276.723 457.721 276.723H621.262V440.263Z" fill="white"/>
</svg>
