<svg width="1000" height="1000" viewBox="0 0 1000 1000" fill="none" xmlns="http://www.w3.org/2000/svg">
<rect width="1000" height="1000" fill="white"/>
<path d="M175 746.906V766H121.482C116.197 766 111.247 764.779 106.698 762.473C100.075 759.115 94.6563 753.621 91.4787 746.872C89.2042 742.294 88 737.241 88 731.882V659H106.865V733.713C107.768 740.429 113.053 745.787 119.676 746.703L175 746.872V746.906Z" fill="#0A3029"/>
<path opacity="0.1" d="M87 981.085V1000H33.4821C28.1972 1000 23.2468 998.79 18.6978 996.506C12.075 993.18 6.65629 987.737 3.47866 981.051C1.20415 976.515 0 971.509 0 966.201V894H18.8651V968.015C19.7682 974.668 25.0531 979.976 31.6759 980.883L87 981.051V981.085Z" fill="#0A3029"/>
<path opacity="0.1" d="M87 87.0846V106H33.4821C28.1972 106 23.2468 104.79 18.6978 102.506C12.075 99.1797 6.65629 93.737 3.47866 87.0511C1.20415 82.5154 0 77.5093 0 72.2009V0H18.8651V74.0152C19.7682 80.6675 25.0531 85.9759 31.6759 86.883L87 87.0511V87.0846Z" fill="#0A3029"/>
<path opacity="0.1" d="M1000 981.085V1000H946.482C941.197 1000 936.247 998.79 931.698 996.506C925.075 993.18 919.656 987.737 916.479 981.051C914.204 976.515 913 971.509 913 966.201V894H931.865V968.015C932.768 974.668 938.053 979.976 944.676 980.883L1000 981.051V981.085Z" fill="#0A3029"/>
<path opacity="0.1" d="M1000 87.0846V106H946.482C941.197 106 936.247 104.79 931.698 102.506C925.075 99.1797 919.656 93.737 916.479 87.0511C914.204 82.5154 913 77.5093 913 72.2009V0H931.865V74.0152C932.768 80.6675 938.053 85.9759 944.676 86.883L1000 87.0511V87.0846Z" fill="#0A3029"/>
<path opacity="0.1" d="M603 640.085V659H549.482C544.197 659 539.247 657.79 534.698 655.506C528.075 652.18 522.656 646.737 519.479 640.051C517.204 635.515 516 630.509 516 625.201V553H534.865V627.015C535.768 633.668 541.053 638.976 547.676 639.883L603 640.051V640.085Z" fill="#0A3029"/>
<path d="M341.415 659.17C370.977 659.17 395 683.019 395 712.5C395 725.663 390.243 737.706 382.292 747.036C381.374 748.121 380.287 749.173 379.234 750.259C369.584 760.029 356.264 766 341.585 766H288V659H341.585L341.415 659.136V659.17ZM375.87 712.67C375.87 693.705 360.409 678.269 341.415 678.269H306.96V747.07H341.415C360.409 747.07 375.87 731.634 375.87 712.67Z" fill="#0A3029"/>
<path d="M636 659V766H616.9V697.81L598.106 712.195L582.5 724.272L566.894 712.195L548.1 697.81V766H529V659L548.1 673.69L582.5 700.117L616.9 673.69L636 659Z" fill="#0A3029"/>
<path d="M651 766V659H670V766H651Z" fill="#0A3029"/>
<path d="M792 659.135V766L772.9 751.329L704.1 698.371V766H685V659.44L704.1 674.111L772.9 727.069V659L792 659.135Z" fill="#0A3029"/>
<path d="M914 659V678.1H870.065V766H850.935V678.1H807V659H914Z" fill="#0A3029"/>
<path d="M206.491 724.909C221.101 724.841 245.336 724.739 249.599 724.739L249.496 705.482L206.491 705.685V678.223H275.966V659H187V766C187 766 269.812 766 276 766V746.743H206.526V724.909H206.491Z" fill="#0A3029"/>
<path d="M494.777 749.421C492.064 757.151 476.57 758.575 471.62 759.253C464.094 760.304 407 766 407 766V699.21C407 677.003 425.003 659 447.21 659H514V765.932C514 765.932 506.304 765.966 494.777 766V749.455V749.421ZM494.777 678.223H448.43C436.191 678.223 426.257 688.157 426.257 700.396V745.183L478.503 738.538C487.826 737.351 494.811 729.418 494.811 720.027V678.189L494.777 678.223Z" fill="#0A3029"/>
<path opacity="0.04" d="M791.682 233C722.561 233 666.336 289.057 666.336 357.973V519.423L665 520.526L666.336 521.857V565.668H710.278L711.614 567L712.719 565.668H874.653C943.775 565.668 1000 509.611 1000 440.696V233H791.682ZM956.043 440.68C956.043 485.44 919.532 521.842 874.638 521.842H748.923L864.32 368.03L710.278 483.175V357.973C710.278 313.228 746.789 276.811 791.682 276.811H956.043V440.68Z" fill="#0A3029"/>
<path d="M458.973 233C390.057 233 334 289.057 334 357.973V565.668H541.696C610.611 565.668 666.668 509.611 666.668 440.696V233H458.973ZM622.842 440.68C622.842 485.44 586.44 521.842 541.68 521.842H416.34L531.394 368.03L377.811 483.175V357.973C377.811 313.228 414.213 276.811 458.973 276.811H622.842V440.68Z" fill="#0A3029"/>
<path opacity="0.04" d="M126.304 233C57.3888 233 1.33178 289.057 1.33178 357.973V519.423L0 520.526L1.33178 521.857V565.668H45.1426L46.4744 567L47.5765 565.668H209.027C277.943 565.668 334 509.611 334 440.696V233H126.304ZM290.174 440.68C290.174 485.44 253.772 521.842 209.012 521.842H83.6722L198.725 368.03L45.1426 483.175V357.973C45.1426 313.228 81.5444 276.811 126.304 276.811H290.174V440.68Z" fill="#0A3029"/>
</svg>
