<svg width="1000" height="1000" viewBox="0 0 1000 1000" fill="none" xmlns="http://www.w3.org/2000/svg">
<rect width="1000" height="1000" fill="white"/>
<path d="M175 746.906V766H121.482C116.197 766 111.247 764.779 106.698 762.473C100.075 759.115 94.6563 753.621 91.4787 746.872C89.2042 742.294 88 737.241 88 731.882V659H106.865V733.713C107.768 740.429 113.053 745.787 119.676 746.703L175 746.872V746.906Z" fill="#0A3029"/>
<path d="M341.415 659.17C370.977 659.17 395 683.019 395 712.5C395 725.663 390.243 737.706 382.292 747.036C381.374 748.121 380.287 749.173 379.234 750.259C369.584 760.029 356.264 766 341.585 766H288V659H341.585L341.415 659.136V659.17ZM375.87 712.67C375.87 693.705 360.409 678.269 341.415 678.269H306.96V747.07H341.415C360.409 747.07 375.87 731.634 375.87 712.67Z" fill="#0A3029"/>
<path d="M636 659V766H616.9V697.81L598.106 712.195L582.5 724.272L566.894 712.195L548.1 697.81V766H529V659L548.1 673.69L582.5 700.117L616.9 673.69L636 659Z" fill="#0A3029"/>
<path d="M651 766V659H670V766H651Z" fill="#0A3029"/>
<path d="M792 659.135V766L772.9 751.329L704.1 698.371V766H685V659.44L704.1 674.111L772.9 727.069V659L792 659.135Z" fill="#0A3029"/>
<path d="M914 659V678.1H870.065V766H850.935V678.1H807V659H914Z" fill="#0A3029"/>
<path d="M206.491 724.909C221.101 724.841 245.336 724.739 249.599 724.739L249.496 705.482L206.491 705.685V678.223H275.966V659H187V766C187 766 269.812 766 276 766V746.743H206.526V724.909H206.491Z" fill="#0A3029"/>
<path d="M494.777 749.421C492.064 757.151 476.57 758.575 471.62 759.253C464.094 760.304 407 766 407 766V699.21C407 677.003 425.003 659 447.21 659H514V765.932C514 765.932 506.304 765.966 494.777 766V749.455V749.421ZM494.777 678.223H448.43C436.191 678.223 426.257 688.157 426.257 700.396V745.183L478.503 738.538C487.826 737.351 494.811 729.418 494.811 720.027V678.189L494.777 678.223Z" fill="#0A3029"/>
<path d="M458.721 233C389.944 233 334 288.944 334 357.722V565H541.278C610.056 565 666 509.056 666 440.278V233H458.721ZM622.262 440.263C622.262 484.933 585.933 521.262 541.263 521.262H416.175L530.997 367.758L377.723 482.672V357.722C377.723 313.067 414.052 276.723 458.721 276.723H622.262V440.263Z" fill="#0A3029"/>
</svg>
