<svg width="1000" height="1000" viewBox="0 0 1000 1000" fill="none" xmlns="http://www.w3.org/2000/svg">
<rect width="1000" height="1000" fill="white"/>
<path opacity="0.1" d="M87 981.085V1000H33.4821C28.1972 1000 23.2468 998.79 18.6978 996.506C12.075 993.18 6.65629 987.737 3.47866 981.051C1.20415 976.515 0 971.509 0 966.201V894H18.8651V968.015C19.7682 974.668 25.0531 979.976 31.6759 980.883L87 981.051V981.085Z" fill="#0A3029"/>
<path opacity="0.1" d="M87 87.0846V106H33.4821C28.1972 106 23.2468 104.79 18.6978 102.506C12.075 99.1797 6.65629 93.737 3.47866 87.0511C1.20415 82.5154 0 77.5093 0 72.2009V0H18.8651V74.0152C19.7682 80.6675 25.0531 85.9759 31.6759 86.883L87 87.0511V87.0846Z" fill="#0A3029"/>
<path opacity="0.1" d="M1000 981.085V1000H946.482C941.197 1000 936.247 998.79 931.698 996.506C925.075 993.18 919.656 987.737 916.479 981.051C914.204 976.515 913 971.509 913 966.201V894H931.865V968.015C932.768 974.668 938.053 979.976 944.676 980.883L1000 981.051V981.085Z" fill="#0A3029"/>
<path opacity="0.1" d="M1000 87.0846V106H946.482C941.197 106 936.247 104.79 931.698 102.506C925.075 99.1797 919.656 93.737 916.479 87.0511C914.204 82.5154 913 77.5093 913 72.2009V0H931.865V74.0152C932.768 80.6675 938.053 85.9759 944.676 86.883L1000 87.0511V87.0846Z" fill="#0A3029"/>
<path opacity="0.1" d="M603 657.085V676H549.482C544.197 676 539.247 674.79 534.698 672.506C528.075 669.18 522.656 663.737 519.479 657.051C517.204 652.515 516 647.509 516 642.201V570H534.865V644.015C535.768 650.668 541.053 655.976 547.676 656.883L603 657.051V657.085Z" fill="#0A3029"/>
<path opacity="0.04" d="M791.682 236C722.561 236 666.336 292.057 666.336 360.973V522.423L665 523.526L666.336 524.857V568.668H710.278L711.614 570L712.719 568.668H874.653C943.775 568.668 1000 512.611 1000 443.696V236H791.682ZM956.043 443.68C956.043 488.44 919.532 524.842 874.638 524.842H748.923L864.32 371.03L710.278 486.175V360.973C710.278 316.228 746.789 279.811 791.682 279.811H956.043V443.68Z" fill="#0A3029"/>
<path d="M458.721 237C389.944 237 334 292.944 334 361.722V569H541.278C610.056 569 666 513.056 666 444.278V237H458.721ZM622.262 444.263C622.262 488.933 585.933 525.262 541.263 525.262H416.175L530.997 371.758L377.723 486.672V361.722C377.723 317.067 414.052 280.723 458.721 280.723H622.262V444.263Z" fill="#0A3029"/>
<path opacity="0.04" d="M126.304 236C57.3888 236 1.33178 292.057 1.33178 360.973V522.423L0 523.526L1.33178 524.857V568.668H45.1426L46.4744 570L47.5765 568.668H209.027C277.943 568.668 334 512.611 334 443.696V236H126.304ZM290.174 443.68C290.174 488.44 253.772 524.842 209.012 524.842H83.6722L198.725 371.03L45.1426 486.175V360.973C45.1426 316.228 81.5444 279.811 126.304 279.811H290.174V443.68Z" fill="#0A3029"/>
<path d="M161 748.297V764H116.094C111.66 764 107.506 762.996 103.689 761.099C98.1319 758.338 93.5852 753.819 90.9189 748.269C89.0104 744.503 88 740.347 88 735.94V676H103.829V737.447C104.587 742.969 109.022 747.376 114.579 748.129L161 748.269V748.297Z" fill="#0A3029"/>
<path d="M297.93 676.139C322.243 676.139 342 695.754 342 720C342 730.826 338.088 740.731 331.548 748.403C330.794 749.296 329.9 750.161 329.033 751.054C321.097 759.089 310.142 764 298.07 764H254V676H298.07L297.93 676.112V676.139ZM326.267 720.14C326.267 704.543 313.552 691.848 297.93 691.848H269.594V748.431H297.93C313.552 748.431 326.267 735.736 326.267 720.14Z" fill="#0A3029"/>
<path d="M542 676V764H526.292V707.919L510.834 719.749L498 729.682L485.166 719.749L469.708 707.919V764H454V676L469.708 688.081L498 709.816L526.292 688.081L542 676Z" fill="#0A3029"/>
<path d="M555 764V676H570V764H555Z" fill="#0A3029"/>
<path d="M671 676.111V764L655.292 751.934L598.708 708.38V764H583V676.362L598.708 688.428L655.292 731.982V676L671 676.111Z" fill="#0A3029"/>
<path d="M772 676V691.708H735.867V764H720.133V691.708H684V676H772Z" fill="#0A3029"/>
<path d="M186.206 730.205C198.354 730.15 218.504 730.066 222.049 730.066L221.963 714.228L186.206 714.395V691.81H243.971V676H170V764C170 764 238.855 764 244 764V748.162H186.235V730.205H186.206Z" fill="#0A3029"/>
<path d="M425.01 750.365C422.754 756.722 409.867 757.893 405.75 758.451C399.489 759.316 352 764 352 764V709.07C352 690.806 366.974 676 385.446 676H441V763.944C441 763.944 434.599 763.972 425.01 764V750.393V750.365ZM425.01 691.81H386.461C376.28 691.81 368.018 699.98 368.018 710.046V746.88L411.474 741.414C419.229 740.439 425.039 733.914 425.039 726.19V691.782L425.01 691.81Z" fill="#0A3029"/>
<path d="M772 764V749H788V764H772Z" fill="#0A3029"/>
<path d="M801 763V676H816V763H801Z" fill="#0A3029"/>
<path d="M913 719.5C913 743.498 893.498 763 869.5 763C845.502 763 826 743.498 826 719.5C826 695.502 845.502 676 869.5 676C893.498 676 913 695.502 913 719.5ZM897.47 719.5C897.47 704.081 884.919 691.53 869.5 691.53C854.08 691.53 841.53 704.081 841.53 719.5C841.53 734.919 854.08 747.47 869.5 747.47C884.919 747.47 897.47 734.919 897.47 719.5Z" fill="#0A3029"/>
</svg>
