<svg width="1000" height="1000" viewBox="0 0 1000 1000" fill="none" xmlns="http://www.w3.org/2000/svg">
<rect width="1000" height="1000" fill="white"/>
<path d="M458.721 237C389.944 237 334 292.944 334 361.722V569H541.278C610.056 569 666 513.056 666 444.278V237H458.721ZM622.262 444.263C622.262 488.933 585.933 525.262 541.263 525.262H416.175L530.997 371.758L377.723 486.672V361.722C377.723 317.067 414.052 280.723 458.721 280.723H622.262V444.263Z" fill="#90F5C5"/>
<path d="M161 748.297V764H116.094C111.66 764 107.506 762.996 103.689 761.099C98.1319 758.338 93.5852 753.819 90.9189 748.269C89.0104 744.503 88 740.347 88 735.94V676H103.829V737.447C104.587 742.969 109.022 747.376 114.579 748.129L161 748.269V748.297Z" fill="#0A3029"/>
<path d="M297.93 676.139C322.243 676.139 342 695.754 342 720C342 730.826 338.088 740.731 331.548 748.403C330.794 749.296 329.9 750.161 329.033 751.054C321.097 759.089 310.142 764 298.07 764H254V676H298.07L297.93 676.112V676.139ZM326.267 720.14C326.267 704.543 313.552 691.848 297.93 691.848H269.594V748.431H297.93C313.552 748.431 326.267 735.736 326.267 720.14Z" fill="#0A3029"/>
<path d="M542 676V764H526.292V707.919L510.834 719.749L498 729.682L485.166 719.749L469.708 707.919V764H454V676L469.708 688.081L498 709.816L526.292 688.081L542 676Z" fill="#90F5C5"/>
<path d="M555 764V676H570V764H555Z" fill="#90F5C5"/>
<path d="M671 676.111V764L655.292 751.934L598.708 708.38V764H583V676.362L598.708 688.428L655.292 731.982V676L671 676.111Z" fill="#90F5C5"/>
<path d="M772 676V691.708H735.867V764H720.133V691.708H684V676H772Z" fill="#90F5C5"/>
<path d="M186.206 730.205C198.354 730.15 218.504 730.066 222.049 730.066L221.963 714.228L186.206 714.395V691.81H243.971V676H170V764C170 764 238.855 764 244 764V748.162H186.235V730.205H186.206Z" fill="#0A3029"/>
<path d="M425.01 750.365C422.754 756.722 409.867 757.893 405.75 758.451C399.489 759.316 352 764 352 764V709.07C352 690.806 366.974 676 385.446 676H441V763.944C441 763.944 434.599 763.972 425.01 764V750.393V750.365ZM425.01 691.81H386.461C376.28 691.81 368.018 699.98 368.018 710.046V746.88L411.474 741.414C419.229 740.439 425.039 733.914 425.039 726.19V691.782L425.01 691.81Z" fill="#0A3029"/>
<path d="M772 764V749H788V764H772Z" fill="#90F5C5"/>
<path d="M801 763V676H816V763H801Z" fill="#90F5C5"/>
<path d="M913 719.5C913 743.498 893.498 763 869.5 763C845.502 763 826 743.498 826 719.5C826 695.502 845.502 676 869.5 676C893.498 676 913 695.502 913 719.5ZM897.47 719.5C897.47 704.081 884.919 691.53 869.5 691.53C854.08 691.53 841.53 704.081 841.53 719.5C841.53 734.919 854.08 747.47 869.5 747.47C884.919 747.47 897.47 734.919 897.47 719.5Z" fill="#90F5C5"/>
</svg>
